<?xml version="1.0" encoding="UTF-8"?>
<svg version="1.1" xmlns="http://www.w3.org/2000/svg" width="1000" height="1000">
<path d="M0 0 C3.73047656 0.01709081 7.46031059 0.00689651 11.19076538 -0.01031494 C36.86813645 -0.11072002 62.14520195 1.71960901 87.47753906 6.14111328 C88.21626251 6.26739105 88.95498596 6.39366882 89.71609497 6.52377319 C132.14081511 13.80269769 173.34349349 26.44217041 212.47753906 44.39111328 C213.97752441 45.07729736 213.97752441 45.07729736 215.5078125 45.77734375 C245.9393795 59.79935493 275.34061226 76.4490654 301.79882812 97.09326172 C304.38618988 99.09361295 307.03002006 101.01670321 309.66503906 102.95361328 C315.06275521 106.9982434 320.19383554 111.30550594 325.30957031 115.69580078 C328.2324179 118.19957342 331.22299365 120.61080077 334.22753906 123.01611328 C338.55639987 126.53449071 342.4859417 130.29251687 346.37597656 134.28564453 C348.28192028 136.1951309 350.2353476 137.95754831 352.29003906 139.70361328 C359.95239799 146.29324196 367.11105085 153.59089955 373.65332031 161.28955078 C375.49339653 163.40938163 377.39912286 165.45877773 379.31835938 167.50683594 C385.26977107 173.88099171 390.68444678 180.5615239 395.99121094 187.4765625 C397.52138579 189.44759258 399.08141245 191.39147763 400.64941406 193.33251953 C414.70107214 210.8498976 427.44815095 229.82410738 438.47753906 249.39111328 C438.90631348 250.14473145 439.33508789 250.89834961 439.77685547 251.67480469 C470.19288408 305.38552327 490.66170293 363.32204559 500.15466309 424.33959961 C500.46513707 426.31231258 500.79180617 428.28245595 501.11914062 430.25244141 C508.49832608 476.25832981 508.10982364 528.45800334 500.47753906 574.39111328 C500.25983413 575.77438324 500.04339012 577.15785216 499.828125 578.54150391 C491.64825912 630.60871629 475.09114671 680.29025843 451.47753906 727.39111328 C451.02411133 728.30054688 450.57068359 729.20998047 450.10351562 730.14697266 C437.31290153 755.65345657 421.95684553 779.83914096 404.47753906 802.39111328 C404.05794922 802.93541992 403.63835938 803.47972656 403.20605469 804.04052734 C393.61038222 816.47287671 383.5392163 828.39643808 372.85253906 839.90283203 C371.468263 841.40115357 370.09623179 842.90980228 368.72753906 844.42236328 C360.74896052 853.22924146 352.61095861 861.86623489 343.55957031 869.59033203 C341.04600328 871.7643553 338.60977677 874.01501816 336.16503906 876.26611328 C330.76029897 881.18354074 325.19561233 885.84467948 319.47753906 890.39111328 C318.86088379 890.88562988 318.24422852 891.38014648 317.60888672 891.88964844 C248.80307653 946.94428533 166.48334659 982.56399714 79.53875732 996.0682373 C77.54695225 996.38024017 75.55735335 996.70622806 73.56787109 997.03271484 C51.43757053 1000.53032778 29.24277503 1000.7833347 6.88785553 1000.82367706 C4.58250262 1000.828524 2.27719929 1000.8377924 -0.02813721 1000.84759521 C-26.44855996 1000.93584379 -52.45098351 999.19162705 -78.52246094 994.64111328 C-79.26118439 994.51483551 -79.99990784 994.38855774 -80.76101685 994.25845337 C-123.18573698 986.97952888 -164.38841537 974.34005616 -203.52246094 956.39111328 C-204.52245117 955.93365723 -205.52244141 955.47620117 -206.55273438 955.00488281 C-236.98430138 940.98287163 -266.38553414 924.33316116 -292.84375 903.68896484 C-295.43111176 901.68861361 -298.07494193 899.76552336 -300.70996094 897.82861328 C-306.10767708 893.78398316 -311.23875742 889.47672062 -316.35449219 885.08642578 C-319.27733977 882.58265315 -322.26791552 880.17142579 -325.27246094 877.76611328 C-329.60132174 874.24773585 -333.53086358 870.48970969 -337.42089844 866.49658203 C-339.32684216 864.58709567 -341.28026947 862.82467825 -343.33496094 861.07861328 C-350.99731987 854.4889846 -358.15597272 847.19132702 -364.69824219 839.49267578 C-366.53831841 837.37284493 -368.44404473 835.32344883 -370.36328125 833.27539062 C-376.31469295 826.90123485 -381.72936866 820.22070266 -387.03613281 813.30566406 C-388.56630766 811.33463398 -390.12633433 809.39074893 -391.69433594 807.44970703 C-455.06404445 728.46905045 -495.2899354 622.90785286 -495.76074219 521.29736328 C-495.76481771 520.53689194 -495.76889324 519.77642059 -495.77309227 518.99290466 C-495.79384319 514.94432872 -495.80817527 510.89578527 -495.81762695 506.84716797 C-495.82635719 503.58590252 -495.84693181 500.32508139 -495.87915039 497.06396484 C-496.86598129 394.80760582 -463.76394465 294.2671746 -372.64746094 170.32861328 C-372.13626709 169.73338867 -371.62507324 169.13816406 -371.09838867 168.52490234 C-367.89547351 164.84157588 -364.53964006 161.36753283 -361.06689453 157.93823242 C-359.37491566 156.24331144 -357.80705944 154.47925874 -356.27246094 152.64111328 C-349.95465173 145.32949139 -343.02025943 138.52775567 -335.67089844 132.25830078 C-333.49056531 130.36339308 -331.36889616 128.41201466 -329.25219727 126.4465332 C-323.2054129 120.83815746 -316.99073664 115.51159493 -310.52246094 110.39111328 C-309.87003418 109.87145996 -309.21760742 109.35180664 -308.54541016 108.81640625 C-298.15649825 100.5585532 -287.58490511 92.72171403 -276.52246094 85.39111328 C-275.86487793 84.95234863 -275.20729492 84.51358398 -274.52978516 84.06152344 C-215.12909264 44.53316748 -148.88529451 18.15353031 -78.52246094 6.14111328 C-77.84032532 6.02209656 -77.1581897 5.90307983 -76.4553833 5.78045654 C-51.05190872 1.39446043 -25.72506344 -0.11868946 0 0 Z " fill="#72A141" transform="translate(495.5224609375,-0.39111328125)"/>
<path d="M0 0 C0.9475376 -0.00205263 1.8950752 -0.00410527 2.87132606 -0.0062201 C6.05853243 -0.01189176 9.24569561 -0.01043265 12.43290615 -0.00901413 C14.73616013 -0.01159764 17.03941366 -0.01461077 19.34266657 -0.01801753 C25.68153782 -0.02609193 32.02039776 -0.02787734 38.35927355 -0.028615 C44.49026159 -0.02979206 50.6212448 -0.03659216 56.7522295 -0.04269341 C73.1743299 -0.05874608 89.59642937 -0.06465519 106.01853622 -0.06944216 C113.78501835 -0.07177814 121.55149975 -0.07538072 129.31798131 -0.07913754 C155.89779039 -0.09197037 182.47759907 -0.10269138 209.05741119 -0.10614014 C210.72555114 -0.10636177 212.39369108 -0.10658355 214.06183102 -0.10680549 C215.73400787 -0.10702613 217.40618472 -0.10724661 219.07836157 -0.10746694 C222.43306959 -0.10790949 225.7877776 -0.10835661 229.14248562 -0.10880661 C229.97425673 -0.108916 230.80602784 -0.10902539 231.66300413 -0.1091381 C258.65197897 -0.11277124 285.64092699 -0.12870233 312.62989156 -0.15199697 C341.15805497 -0.17657519 369.68620304 -0.19031197 398.21437734 -0.19150805 C401.34387553 -0.19167951 404.47337371 -0.19189494 407.60287189 -0.19214249 C408.37345375 -0.19219826 409.1440356 -0.19225402 409.93796841 -0.19231148 C422.35365508 -0.19346345 434.76931426 -0.2044975 447.18499163 -0.21902954 C459.65450507 -0.23337272 472.12398317 -0.23664382 484.59350259 -0.22858956 C491.35251426 -0.22451761 498.11142759 -0.22567754 504.87042904 -0.23964691 C511.05153512 -0.25230562 517.23247798 -0.25125949 523.41358357 -0.2390562 C525.655741 -0.23708523 527.89790968 -0.24024147 530.14005125 -0.24890056 C533.17630704 -0.25988891 536.2119761 -0.25257951 539.24821472 -0.24050903 C540.56877663 -0.25190182 540.56877663 -0.25190182 541.91601655 -0.26352477 C547.67627442 -0.21373033 551.07648323 0.75725694 555.34945679 4.84014606 C557.0755203 8.1039901 556.97876885 11.18870515 556.94886684 14.79193497 C556.95694515 15.9555822 556.95694515 15.9555822 556.96518666 17.14273745 C556.97950439 19.74451587 556.97235323 22.34578824 556.96523952 24.94758987 C556.97094111 26.81196884 556.97790454 28.67634432 556.98603725 30.54071426 C557.00400728 35.60681743 557.00279305 40.67274775 556.99709487 45.73887324 C556.99400855 49.96615875 557.00008927 54.1934108 557.00613362 58.42069155 C557.02018988 68.39225097 557.01860841 78.36372475 557.00723171 88.33528519 C556.99574924 98.62706602 557.00982588 108.91858631 557.03662819 119.21033281 C557.05876987 128.04270895 557.06542602 136.87500322 557.05955178 145.70740515 C557.05617735 150.98427127 557.05862951 156.26097036 557.0758028 161.53781319 C557.09124542 166.49960567 557.08734622 171.46101156 557.06849766 176.42278862 C557.06480433 178.24449336 557.06794185 180.06622656 557.07838345 181.88790512 C557.09154452 184.37369734 557.08009018 186.85820053 557.06239223 189.34393692 C557.07199724 190.06592441 557.08160225 190.7879119 557.09149832 191.5317778 C557.03922601 195.09674344 556.61623579 197.04445415 554.69148254 200.0854311 C552.56118679 202.13142776 552.56118679 202.13142776 549.97524929 202.65486526 C548.59466335 202.5813887 548.59466335 202.5813887 547.18618679 202.50642776 C546.27095242 202.47291214 545.35571804 202.43939651 544.41274929 202.40486526 C541.56118679 202.13142776 541.56118679 202.13142776 538.93032742 201.62312698 C534.85896923 201.02894471 530.91090755 200.99615939 526.80337429 200.99080276 C525.10935025 200.97249167 523.41533941 200.95292296 521.72134304 200.93220901 C519.07023304 200.90315171 516.4199865 200.8814248 513.76870632 200.88093948 C511.19616326 200.87761025 508.62557761 200.84312337 506.05337429 200.80330276 C505.26163815 200.81037247 504.469902 200.81744217 503.65417385 200.8247261 C499.75474679 200.73835595 497.96242333 200.51417012 495.09292507 197.77693558 C492.90784661 194.00302576 492.4349338 191.2541562 492.42315578 186.96944046 C492.41770245 185.90105438 492.41224911 184.8326683 492.40663052 183.73190689 C492.40558819 182.55986206 492.40454586 181.38781723 492.40347195 180.18025589 C492.39585087 178.3287719 492.39585087 178.3287719 492.38807583 176.43988419 C492.37736252 173.75525862 492.36836469 171.07068489 492.3619566 168.38605118 C492.35127545 164.14232116 492.33103167 159.89867082 492.30883694 155.65498734 C492.24691211 143.58776358 492.1928591 131.52054509 492.1598196 119.45320511 C492.14149163 112.78834845 492.11258214 106.12362577 492.07181489 99.45886755 C492.0507203 95.93147896 492.03528414 92.40425935 492.03300762 88.87680435 C492.03046719 84.94526194 492.005036 81.01405184 491.9776907 77.08259964 C491.98069683 75.91055481 491.98370296 74.73850998 491.98680019 73.53094864 C491.97570721 72.46256256 491.96461422 71.39417648 491.95318508 70.29341507 C491.94987494 69.36353523 491.94656479 68.4336554 491.94315434 67.47559738 C491.47639368 64.61104472 490.88998346 63.82771872 488.56118679 62.13142776 C484.36959351 60.05768687 480.87989979 59.88004162 476.23162079 59.87695217 C475.49996009 59.87374569 474.76829939 59.87053922 474.01446715 59.86723557 C471.55551946 59.85891468 469.09681401 59.86486712 466.63786221 59.87073135 C464.86003249 59.86771163 463.08220408 59.86382305 461.30437797 59.85913879 C456.41315779 59.84882707 451.52201065 59.85104867 446.63078439 59.85531938 C441.35803484 59.85778084 436.08530315 59.84877969 430.81256008 59.84128189 C420.48064505 59.82851689 410.14875599 59.82674343 399.8168344 59.82908215 C391.42121557 59.83086339 383.02560464 59.82911985 374.62998676 59.82485771 C373.43621586 59.82426252 372.24244495 59.82366733 371.01249916 59.82305411 C368.58755422 59.82184239 366.16260928 59.82062826 363.73766433 59.81941173 C340.98441367 59.80852934 318.23117781 59.81070205 295.47792631 59.81679658 C274.65036393 59.82196689 253.8228483 59.81070852 232.99529517 59.79169836 C211.62204893 59.77233929 190.24882483 59.76406053 168.87556976 59.76782161 C156.87109205 59.76973652 144.86665415 59.76721786 132.86218357 59.75310707 C122.64325091 59.74121692 112.42438256 59.73976177 102.20544905 59.75189724 C96.98956786 59.75780246 91.77380443 59.75884009 86.55793095 59.74689484 C81.78550007 59.73609194 77.01328607 59.73907236 72.24086558 59.75315652 C70.51211769 59.75581893 68.7833531 59.75338884 67.05462153 59.74542066 C64.7083488 59.73535462 62.36283584 59.7437018 60.01659393 59.75669765 C58.71230692 59.75664264 57.40801991 59.75658762 56.06420904 59.75653094 C52.22156082 60.16777486 49.82539382 61.08862074 46.56118679 63.13142776 C44.52932066 66.17922697 44.31086134 66.758513 44.3067112 70.17839909 C44.29796291 71.41798035 44.29796291 71.41798035 44.28903788 72.68260366 C44.29470687 74.0442399 44.29470687 74.0442399 44.30049038 75.43338394 C44.29666483 76.39795476 44.29283929 77.36252557 44.28889781 78.35632581 C44.27854133 81.60343598 44.28256513 84.8503702 44.28652859 88.09749222 C44.2821833 90.42001892 44.27700077 92.74254418 44.27104092 95.06506729 C44.25761274 101.38795813 44.25707701 107.71078932 44.25960422 114.03369164 C44.26080748 119.98155377 44.25459876 125.92940579 44.24917076 131.87726488 C44.23828521 144.38947567 44.24046116 156.90165953 44.2465556 169.41387185 C44.25171277 180.83707615 44.24050298 192.26019487 44.22145738 203.68338225 C44.202033 215.42438174 44.19383185 227.16534086 44.19758064 238.90635651 C44.19939024 245.49302571 44.19679044 252.07961673 44.1828661 258.66627312 C44.17024251 264.87065852 44.17227475 271.07487388 44.18527699 277.27925682 C44.18763332 279.54869775 44.18494216 281.8181508 44.17665386 284.08757782 C44.1101821 303.71444897 45.16981159 322.11262045 59.34243679 337.28377151 C71.60585564 347.49609038 86.23584114 351.46332717 101.9418478 351.38298416 C102.93775631 351.3859543 103.93366482 351.38892444 104.95975238 351.39198458 C108.27056061 351.39957513 111.58118883 351.39315102 114.89199734 351.38679886 C117.27617417 351.38955098 119.66035009 351.39323222 122.04452419 351.39776993 C127.16540867 351.40586225 132.28624954 351.40805539 137.40713978 351.40582275 C144.8185611 351.40271509 152.22990659 351.41439824 159.64130876 351.43037255 C171.67815259 351.45628832 183.71499648 351.4763324 195.75186062 351.4898262 C196.47108882 351.49063657 197.19031702 351.49144694 197.93134002 351.49228187 C208.1473569 351.50351338 218.36336833 351.50878748 228.57939056 351.511669 C229.65959722 351.51197498 229.65959722 351.51197498 230.76162624 351.51228714 C231.48088111 351.51248708 232.20013598 351.51268701 232.94118645 351.51289301 C244.93891987 351.516627 256.93657058 351.53571533 268.93426257 351.5673815 C275.6642622 351.58458445 282.39410036 351.59400879 289.12411976 351.58444214 C295.4484631 351.57591189 301.77251359 351.58555329 308.09681606 351.60918236 C310.41757382 351.61451037 312.73835887 351.61299721 315.05910587 351.60414696 C318.22691935 351.59304013 321.39372489 351.60644138 324.56147671 351.62590408 C325.47976606 351.61677943 326.3980554 351.60765477 327.3441717 351.59825361 C333.24498519 351.66881031 336.73812429 352.66542755 341.56118679 356.13142776 C343.93007474 359.68475969 343.77376331 361.10327878 343.68618679 365.30330276 C343.67071804 366.52533401 343.65524929 367.74736526 343.63931179 369.00642776 C343.58754335 371.57414247 343.53546387 374.14185092 343.48306179 376.70955276 C343.40372954 383.00324435 343.52952388 388.18377335 345.56118679 394.13142776 C345.89712429 397.29939651 345.89712429 397.29939651 345.93618679 400.31892776 C345.96454617 401.32310745 345.99290554 402.32728714 346.02212429 403.36189651 C345.42307673 406.96125853 344.45786262 407.94251577 341.56118679 410.13142776 C335.68967485 413.23762093 330.87671095 413.55003504 324.30055141 413.48114395 C322.77128083 413.48309693 322.77128083 413.48309693 321.2111159 413.48508936 C317.80149901 413.48568517 314.39236479 413.4646894 310.98281765 413.44368362 C308.53475528 413.43952207 306.08669046 413.43663461 303.63862514 413.43492508 C297.67973861 413.42704423 291.721064 413.40488773 285.76225739 413.37552177 C280.90945672 413.35183685 276.05666552 413.33376087 271.20382786 413.31963158 C270.16569181 413.31659117 270.16569181 413.31659117 269.10658332 413.31348934 C267.70019616 413.30938307 266.29380899 413.30528442 264.88742179 413.3011933 C251.69864498 413.26206672 238.51000537 413.20369851 225.32133175 413.13920272 C213.30245031 413.08097693 201.28363023 413.04527479 189.26463693 413.02064007 C176.89059758 412.99509706 164.51668607 412.95486391 152.14274603 412.89882571 C150.73709152 412.89250601 149.33143691 412.88620878 147.9257822 412.87993431 C147.234387 412.87684809 146.54299179 412.87376186 145.83064521 412.87058211 C141.00131961 412.84995588 136.17202604 412.83864289 131.34266376 412.8312397 C124.80651846 412.8210118 118.27066823 412.78973899 111.73466587 412.74514008 C109.35250622 412.73196753 106.97029925 412.72527256 104.58810329 412.72599983 C72.44788703 412.72500088 39.90173629 406.71467185 15.56118679 384.13142776 C14.6498196 383.31158401 13.73845242 382.49174026 12.79946804 381.64705276 C-0.64086124 368.97527788 -8.84897678 353.42434541 -14.62631321 336.00642776 C-14.98354465 334.96180374 -14.98354465 334.96180374 -15.3479929 333.8960762 C-20.92030426 316.21004447 -20.89038883 298.00134538 -20.86030531 279.65123832 C-20.85759852 275.99563544 -20.87223288 272.34009114 -20.88440037 268.68451309 C-20.90529342 261.55360974 -20.91000503 254.42278794 -20.90821248 247.29185756 C-20.90689854 241.49715814 -20.91074092 235.70248392 -20.91813755 229.90778923 C-20.92023692 228.23115343 -20.92233452 226.55451763 -20.92443037 224.87788182 C-20.9254739 224.04316424 -20.92651743 223.20844666 -20.92759258 222.3484346 C-20.94642409 206.62308553 -20.94546441 190.89778329 -20.93862325 175.17242763 C-20.93303264 160.78959467 -20.95395025 146.40693898 -20.98698372 132.02414747 C-21.02070364 117.22711932 -21.03589255 102.43017621 -21.03126669 87.63310891 C-21.02902292 79.33662179 -21.03425419 71.04029919 -21.05915928 62.74384499 C-21.08014849 55.69273105 -21.08378645 48.64187225 -21.06485969 41.59074792 C-21.05569341 37.9948534 -21.05458636 34.39943502 -21.07521534 30.80357742 C-21.09732389 26.90690782 -21.08073302 23.01095286 -21.06027317 19.11426163 C-21.07279102 17.97741446 -21.08530887 16.8405673 -21.09820604 15.66927022 C-21.0018422 7.13719098 -21.0018422 7.13719098 -18.27497196 3.44500065 C-13.04195295 -0.82379103 -6.46971095 -0.01303819 0 0 Z " fill="#FEFEFE" transform="translate(219.4388132095337,370.8685722351074)"/>
<path d="M0 0 C0.74499756 0.00491455 1.48999512 0.0098291 2.25756836 0.01489258 C12.99634482 0.24367674 21.35892238 4.25657022 29.25 11.5 C33.14717435 15.63631914 35.48215585 20.05045304 37.5625 25.3125 C37.94535156 26.26511719 38.32820312 27.21773437 38.72265625 28.19921875 C42.19522162 38.71648661 42.07856063 49.47281748 42.05957031 60.43432617 C41.99871406 70.14322262 41.99871406 70.14322262 46.5625 78.3125 C50.77888112 80.83434003 53.86574742 81.68435975 58.75514221 81.65548706 C60.586754 81.65555504 60.586754 81.65555504 62.45536804 81.65562439 C63.79520005 81.64035083 65.13502849 81.62476107 66.47485352 81.60888672 C67.89617461 81.60308462 69.31750149 81.59857635 70.73883057 81.59526062 C74.58804218 81.58222683 78.43687202 81.55003643 82.2859242 81.51354742 C86.31807688 81.47774318 90.3503122 81.45687052 94.3825531 81.43362427 C101.15220385 81.39211895 107.92166548 81.33786166 114.69116211 81.27636719 C122.51415018 81.20549081 130.33705389 81.15624494 138.16026551 81.11825168 C144.88237345 81.08505164 151.60433162 81.04027484 158.32630104 80.98580945 C162.3388069 80.9533002 166.3512337 80.92475068 170.36383247 80.90658188 C174.13559537 80.88884793 177.90696109 80.8565639 181.67851257 80.81310463 C183.06156313 80.7995283 184.44467371 80.79098219 185.8277874 80.78786659 C187.71755893 80.78278267 189.60724431 80.75758695 191.49684143 80.73141479 C192.55371942 80.72290937 193.6105974 80.71440395 194.69950199 80.70564079 C198.28313227 80.21354431 200.98593086 78.88906914 203.5625 76.3125 C203.68597506 73.40127909 203.74871863 70.51020359 203.7734375 67.59765625 C203.80153963 65.77798631 203.83020425 63.95832499 203.859375 62.13867188 C203.90039752 59.26880443 203.93727679 56.39909205 203.96386719 53.52905273 C203.99175331 50.75991264 204.0376593 47.99150649 204.0859375 45.22265625 C204.08919037 44.38058121 204.09244324 43.53850616 204.09579468 42.6709137 C204.32547571 31.34568409 208.15123355 21.27438654 215.7890625 12.859375 C225.80087558 3.26074786 236.4976257 -0.2929784 250.12109375 -0.02734375 C259.94401376 0.47687855 268.65967707 5.48680358 275.5625 12.3125 C280.92637195 18.53688617 287.52423056 26.69188714 287.57421875 35.33984375 C287.39207455 36.75621879 287.1815558 38.1691132 286.94921875 39.578125 C285.30368153 51.21323668 285.47015908 61.4646359 292.5625 71.3125 C294.68527501 73.7519594 296.84124056 75.57440526 299.5625 77.3125 C300.38427734 77.84037109 300.38427734 77.84037109 301.22265625 78.37890625 C310.38646333 83.51466626 321.33444875 86.06075111 331.625 87.75 C347.569428 90.42724333 362.21281552 98.00200275 374.5625 108.3125 C375.20574219 108.81007813 375.84898437 109.30765625 376.51171875 109.8203125 C395.94696236 125.51042803 408.15205911 152.18521467 411.125 176.5703125 C411.63979992 181.566869 411.81829012 186.54178518 411.875 191.5625 C411.90400391 192.43390625 411.93300781 193.3053125 411.96289062 194.203125 C412.00440824 198.39321077 411.93131247 200.69912318 409.73046875 204.359375 C405.51943198 208.15310182 400.78655211 207.45562469 395.43315411 207.44672108 C394.48262414 207.44907331 393.53209418 207.45142554 392.55276027 207.45384905 C389.33730152 207.46055644 386.12188302 207.4600803 382.90641785 207.45967102 C380.5899664 207.46296855 378.27351553 207.46669388 375.9570654 207.4708125 C370.2388886 207.47979833 364.52072163 207.48406211 358.80253852 207.48633147 C351.9558563 207.48929106 345.10918437 207.49798697 338.26250755 207.50674575 C321.71340266 207.52759993 305.16429599 207.53806103 288.61518103 207.54687535 C280.78928093 207.55108002 272.96338161 207.55630221 265.13748217 207.56155988 C238.35828195 207.5794499 211.57908151 207.59444724 184.79987621 207.60188007 C183.11837845 207.60235483 181.43688068 207.60283072 179.75538291 207.60330774 C178.92149774 207.60354411 178.08761256 207.60378049 177.22845813 207.60402403 C173.00346102 207.60522525 168.7784639 207.60644069 164.5534668 207.60766602 C163.71499842 207.60790617 162.87653004 207.60814632 162.01265352 207.60839374 C134.81660358 207.61628981 107.6205972 207.63972805 80.42456629 207.67222196 C51.68355621 207.70649925 22.94257163 207.72622921 -5.79845923 207.72952431 C-8.95189425 207.72994187 -12.10532926 207.73042143 -15.25876427 207.73094749 C-16.42349406 207.73113228 -16.42349406 207.73113228 -17.61175375 207.7313208 C-30.12133154 207.73365532 -42.63085881 207.74932915 -55.14041857 207.76978934 C-67.70777957 207.79001843 -80.27507973 207.79553847 -92.84245399 207.78601871 C-99.65424716 207.78125347 -106.46589027 207.78293994 -113.27766037 207.80278015 C-119.50832294 207.82029578 -125.73869972 207.8195089 -131.96936484 207.80388286 C-134.22845521 207.80148908 -136.48756477 207.80592099 -138.74662564 207.81771151 C-141.80831252 207.83270666 -144.86897044 207.82324348 -147.93063068 207.80748463 C-148.8156532 207.81770683 -149.70067571 207.82792904 -150.61251709 207.83846101 C-156.17588722 207.77560405 -159.13742103 206.89923661 -163.4375 203.3125 C-167.76555038 197.76757749 -166.01965414 186.97271815 -165.4375 180.3125 C-161.15871524 150.57364931 -147.21298616 124.46626908 -123.97265625 105.27734375 C-106.68552688 92.64997305 -86.70268297 85.76665566 -65.5625 83.3125 C-57.98085465 82.38397048 -50.43887515 81.24241383 -44.8125 75.75 C-42.47756186 71.61079148 -42.29514841 68.38243559 -42.2265625 63.6953125 C-42.19844011 62.35155144 -42.16977548 61.00780165 -42.140625 59.6640625 C-42.09983121 57.56706732 -42.06291854 55.47026999 -42.03613281 53.37304688 C-41.81392769 37.32830489 -39.46814479 22.15117339 -28.1953125 9.875 C-19.97334288 2.56658256 -10.78233068 -0.08462983 0 0 Z " fill="#125C7F" transform="translate(364.4375,123.6875)"/>
<path d="M0 0 C0.77851318 0.0012085 1.55702637 0.00241699 2.35913086 0.00366211 C35.64373474 0.14404569 64.71877639 13.53788142 88.9375 36.375 C89.60265625 36.97570312 90.2678125 37.57640625 90.953125 38.1953125 C112.57744788 58.5010791 125.97193312 89.87402319 127.30859375 119.328125 C128.01291723 155.41971305 115.86113906 186.43284819 91.296875 212.9453125 C67.71002203 237.23508493 36.53485494 251.17858455 2.59790039 251.77954102 C-10.33516742 251.92350587 -22.68607321 251.42849571 -35.0625 247.375 C-35.73732422 247.16069336 -36.41214844 246.94638672 -37.10742188 246.72558594 C-68.27517953 236.59680188 -94.95046354 214.528426 -110.0625 185.375 C-120.91555083 163.35109305 -124.56433899 141.82172818 -124.0625 117.375 C-124.04574219 116.23160156 -124.02898438 115.08820313 -124.01171875 113.91015625 C-122.74663444 82.9336634 -106.47476584 53.34261972 -84.3125 32.28515625 C-60.8851608 10.86976153 -31.56108118 -0.09033703 0 0 Z " fill="#125C80" transform="translate(712.0625,595.625)"/>
<path d="M0 0 C7.01647215 3.95937082 12.51646502 9.15201888 15.08203125 16.89453125 C15.48828125 19.65625 15.48828125 19.65625 15.58203125 22.58203125 C15.63359375 23.53464844 15.68515625 24.48726562 15.73828125 25.46875 C14.09335125 34.05567624 7.78213649 40.78643894 1.73486328 46.75927734 C1.02507324 47.47607666 0.3152832 48.19287598 -0.41601562 48.93139648 C-2.73751827 51.27033635 -5.07314358 53.594534 -7.41015625 55.91796875 C-9.04209825 57.55260914 -10.6734464 59.18784259 -12.30422974 60.82363892 C-15.71214875 64.23743318 -19.12714127 67.64394348 -22.54736328 71.04541016 C-26.92098229 75.39620532 -31.27634725 79.76476318 -35.62658501 84.13892174 C-38.98745467 87.51427138 -42.35782525 90.88000431 -45.73111343 94.242939 C-47.34073246 95.84989874 -48.94741045 97.45981018 -50.55102158 99.07276535 C-52.79512293 101.32707182 -55.05173155 103.56808309 -57.31201172 105.80615234 C-57.96577789 106.46801544 -58.61954407 107.12987854 -59.29312134 107.8117981 C-65.22665331 113.63824386 -71.98172928 117.88185725 -80.48046875 118.33203125 C-90.26021515 118.13783011 -97.58073403 110.84385729 -104.23046875 104.33203125 C-104.95540527 103.63529297 -105.6803418 102.93855469 -106.42724609 102.22070312 C-108.60189865 100.12301673 -110.76192755 98.01132596 -112.91796875 95.89453125 C-113.55299316 95.27465332 -114.18801758 94.65477539 -114.84228516 94.01611328 C-121.12669578 87.87041643 -127.29832728 81.6640129 -132.91796875 74.89453125 C-133.66046875 74.02828125 -134.40296875 73.16203125 -135.16796875 72.26953125 C-139.39098919 66.53828922 -140.59244359 62.0157562 -140.390625 54.92578125 C-139.22159927 47.42855837 -133.67385897 41.93339667 -127.984375 37.26953125 C-122.42697345 33.57160054 -115.43235963 33.10747659 -108.91796875 33.89453125 C-102.5744729 36.33433734 -98.44528517 40.09017545 -94.41796875 45.45703125 C-90.92264205 50.11784258 -90.92264205 50.11784258 -85.91796875 52.89453125 C-78.53863126 53.84271428 -73.94330079 52.14743808 -67.98046875 47.70703125 C-65.04705163 45.15066003 -62.55830177 42.29082125 -60.03515625 39.3359375 C-51.55641928 29.55879616 -42.72009698 20.08421731 -32.890625 11.65625 C-30.94479742 9.91849111 -29.15474619 8.09486373 -27.35546875 6.20703125 C-19.61381874 -1.46549688 -10.65207136 -4.03552369 0 0 Z " fill="#FDFDFE" transform="translate(774.91796875,663.10546875)"/>
<path d="M0 0 C1.20935715 -0.00902847 2.41871429 -0.01805695 3.66471863 -0.02735901 C6.21729061 -0.04183204 8.76989944 -0.05074089 11.32250977 -0.05444336 C15.2071851 -0.06633497 19.09026898 -0.11555046 22.97460938 -0.16601562 C25.46223188 -0.17548143 27.94986408 -0.18271571 30.4375 -0.1875 C31.58885941 -0.20703232 32.74021881 -0.22656464 33.9264679 -0.24668884 C41.46080807 -0.20497712 47.11355933 1.11700433 53.41796875 5.37109375 C58.9784525 11.80040308 58.7262855 21.21141936 58.71875 29.265625 C58.72303513 30.29362717 58.72732025 31.32162933 58.73173523 32.38078308 C58.73745389 34.54657254 58.73799706 36.7123812 58.73364258 38.87817383 C58.73048827 42.16326252 58.753954 45.44744459 58.77929688 48.73242188 C58.78157092 50.84765513 58.78227288 52.96289077 58.78125 55.078125 C58.79045975 56.04619583 58.79966949 57.01426666 58.80915833 58.01167297 C58.75694161 65.84439137 57.91408493 73.84716503 53.29296875 80.37109375 C46.02848084 85.42465055 38.35527407 85.81997938 29.734375 85.76953125 C28.09105446 85.77383652 28.09105446 85.77383652 26.41453552 85.77822876 C24.10927816 85.78026036 21.80400319 85.77479418 19.4987793 85.76220703 C15.99423171 85.74615678 12.49084001 85.76207952 8.98632812 85.78125 C6.73567457 85.77926711 4.48502172 85.77542248 2.234375 85.76953125 C1.1986586 85.77560394 0.1629422 85.78167664 -0.90415955 85.78793335 C-8.74240046 85.71315716 -16.28051077 84.98479746 -22.58203125 79.99609375 C-28.24129803 72.5683061 -27.74929339 63.85080171 -27.78515625 54.91015625 C-27.79085632 53.80562103 -27.7965564 52.70108582 -27.8024292 51.56307983 C-27.81185432 49.23151602 -27.81840326 46.89993904 -27.82226562 44.56835938 C-27.83197851 41.01538754 -27.86302924 37.4629927 -27.89453125 33.91015625 C-27.9010614 31.63932633 -27.90631182 29.3684923 -27.91015625 27.09765625 C-27.92250305 26.04220612 -27.93484985 24.98675598 -27.9475708 23.89932251 C-27.92502101 16.37730302 -27.10201649 10.59107489 -22.33203125 4.49609375 C-15.74996542 -0.59004802 -7.96791568 0.03691755 0 0 Z " fill="#FDFEFD" transform="translate(478.58203125,601.62890625)"/>
<path d="M0 0 C1.82683067 -0.00287018 1.82683067 -0.00287018 3.69056702 -0.00579834 C6.26173103 -0.00715709 8.83290197 -0.00348232 11.40405273 0.00488281 C15.33007297 0.0155771 19.25563467 0.0049814 23.18164062 -0.0078125 C25.68359476 -0.00649067 28.1855486 -0.00392779 30.6875 0 C31.85748032 -0.00404846 33.02746063 -0.00809692 34.2328949 -0.01226807 C41.25309089 0.02791979 46.99846965 0.24962837 53.16015625 3.890625 C57.85099847 8.84206956 59.51357632 16.15783286 59.57128906 22.85961914 C59.58089661 23.76478775 59.59050415 24.66995636 59.60040283 25.60255432 C59.60465271 26.57546921 59.60890259 27.54838409 59.61328125 28.55078125 C59.61898132 29.56224716 59.6246814 30.57371307 59.6305542 31.61582947 C59.63999752 33.75844276 59.64653553 35.90107054 59.65039062 38.04370117 C59.66004815 41.29176916 59.69105835 44.53919112 59.72265625 47.78710938 C59.7291917 49.87499627 59.73444004 51.96288766 59.73828125 54.05078125 C59.75062805 55.00952652 59.76297485 55.96827179 59.7756958 56.95606995 C59.75038919 64.77492093 58.8623461 72.69880339 54.34765625 79.265625 C46.87116213 84.35600397 38.42048812 84.71576659 29.62890625 84.6640625 C28.53477417 84.66693268 27.44064209 84.66980286 26.31335449 84.67276001 C24.01407347 84.67478958 21.71477474 84.66933778 19.41552734 84.65673828 C15.91985022 84.64066956 12.42532917 84.6566257 8.9296875 84.67578125 C6.68359123 84.67379862 4.43749567 84.66995455 2.19140625 84.6640625 C0.64253723 84.67317154 0.64253723 84.67317154 -0.93762207 84.6824646 C-8.30672794 84.61193426 -16.3240827 84.1964362 -22.02734375 79.078125 C-26.3446788 71.30692191 -27.03716002 64.9786622 -26.98828125 56.20703125 C-26.99115143 55.06330551 -26.99402161 53.91957977 -26.99697876 52.74119568 C-26.99901278 50.33160912 -26.99352946 47.92200579 -26.98095703 45.51245117 C-26.96490971 41.84320786 -26.98082166 38.17506849 -27 34.50585938 C-26.99801716 32.15624759 -26.99417265 29.80663649 -26.98828125 27.45703125 C-26.99739029 25.8253878 -26.99739029 25.8253878 -27.00668335 24.16078186 C-26.93915355 16.77259779 -26.57395455 9.41103909 -21.27734375 3.828125 C-14.33557805 -0.20778529 -7.83167758 -0.02705301 0 0 Z " fill="#FDFEFD" transform="translate(477.58984375,470.734375)"/>
<path d="M0 0 C1.07824539 -0.00637985 2.15649078 -0.0127597 3.26741028 -0.01933289 C5.00809029 -0.02100212 5.00809029 -0.02100212 6.78393555 -0.02270508 C7.98245651 -0.02603348 9.18097748 -0.02936188 10.41581726 -0.03279114 C12.95184953 -0.03785394 15.48788846 -0.04019966 18.02392578 -0.04003906 C21.8952133 -0.04222198 25.76621421 -0.06037509 29.63745117 -0.0793457 C32.10294499 -0.08228049 34.56844016 -0.08426472 37.03393555 -0.08520508 C38.76550652 -0.09598335 38.76550652 -0.09598335 40.53205872 -0.10697937 C47.52483976 -0.08719987 53.21971985 0.14300695 59.3581543 3.77026367 C63.95389853 8.62132703 65.71931619 15.85829052 65.75341797 22.44799805 C65.75979782 23.28987671 65.76617767 24.13175537 65.77275085 24.99914551 C65.77386368 25.903302 65.7749765 26.8074585 65.77612305 27.73901367 C65.78111565 29.15277283 65.78111565 29.15277283 65.78620911 30.59509277 C65.79127031 32.5922802 65.79361768 34.58947608 65.79345703 36.58666992 C65.79562634 39.60634825 65.81374288 42.62565078 65.83276367 45.64526367 C65.91203085 71.40362647 65.91203085 71.40362647 60.6081543 79.14526367 C55.82417509 82.54440679 51.20969626 84.38985137 45.33398438 84.41992188 C44.30553909 84.42945389 43.27709381 84.4389859 42.21748352 84.44880676 C41.11535019 84.44789536 40.01321686 84.44698395 38.87768555 84.44604492 C37.15928719 84.45247261 37.15928719 84.45247261 35.40617371 84.45903015 C32.982866 84.46476875 30.55954108 84.46527718 28.13623047 84.4609375 C24.4514373 84.45778997 20.76745692 84.48120052 17.08276367 84.5065918 C14.72273864 84.50886624 12.36271146 84.50956761 10.00268555 84.50854492 C8.91067337 84.51775467 7.81866119 84.52696442 6.69355774 84.53645325 C-0.26712109 84.49493212 -8.29051068 84.31280735 -14.04264832 79.87031555 C-19.87471642 73.49422626 -19.68310966 65.6677695 -19.62231445 57.56713867 C-19.62185623 56.5599176 -19.62139801 55.55269653 -19.6209259 54.51495361 C-19.61791492 52.39024676 -19.61006333 50.2655419 -19.59765625 48.14086914 C-19.57948298 44.91959641 -19.57714634 41.69861344 -19.57739258 38.47729492 C-19.57247304 36.40307373 -19.56664283 34.32885446 -19.55981445 32.25463867 C-19.55870163 31.30530457 -19.55758881 30.35597046 -19.55644226 29.37786865 C-19.41984139 9.73192555 -19.41984139 9.73192555 -14.3918457 4.14526367 C-9.69296003 0.73857156 -5.71157135 0.02298804 0 0 Z " fill="#FDFEFD" transform="translate(616.391845703125,470.854736328125)"/>
<path d="M0 0 C1.03490067 -0.00960754 2.06980133 -0.01921509 3.13606262 -0.02911377 C4.79867378 -0.03548859 4.79867378 -0.03548859 6.49487305 -0.04199219 C7.6452153 -0.04769226 8.79555756 -0.05339233 9.98075867 -0.05926514 C12.4124561 -0.06870098 14.84416623 -0.07524349 17.27587891 -0.07910156 C20.98256896 -0.0888043 24.68870371 -0.11984086 28.39526367 -0.15136719 C30.76179685 -0.15789807 33.12833398 -0.16314821 35.49487305 -0.16699219 C36.59720779 -0.17933899 37.69954254 -0.19168579 38.83528137 -0.20440674 C46.50677775 -0.18236168 52.45959792 0.48915961 58.5690918 5.53613281 C62.04565552 9.83071152 62.94270219 13.45447882 62.98461914 18.92602539 C62.99737885 20.06102982 63.01013855 21.19603424 63.02328491 22.36543274 C63.02551056 23.58320908 63.02773621 24.80098541 63.0300293 26.05566406 C63.0400145 27.94764778 63.0400145 27.94764778 63.05020142 29.87785339 C63.06032128 32.54509608 63.06588468 35.21193107 63.06469727 37.87915039 C63.06449441 41.27856603 63.09177059 44.67714256 63.12624168 48.07635975 C63.15397795 51.34026209 63.15266314 54.60415997 63.1550293 57.86816406 C63.16940033 59.07986771 63.18377136 60.29157135 63.19857788 61.53999329 C63.15453219 69.73216651 62.14188743 75.1909439 56.6315918 81.53613281 C49.20220713 85.64600518 39.9597266 85.46994002 31.6550293 85.46191406 C30.64872467 85.46619919 29.64242004 85.47048431 28.60562134 85.47489929 C26.49644722 85.48059755 24.38725346 85.48117648 22.27807617 85.47680664 C19.07005213 85.47363376 15.86294069 85.49720758 12.6550293 85.52246094 C10.59253045 85.52473327 8.53002915 85.52543773 6.4675293 85.52441406 C5.52042084 85.53362381 4.57331238 85.54283356 3.59750366 85.55232239 C-3.71204075 85.50200179 -10.09819829 84.39258319 -16.1809082 80.16113281 C-21.39250289 72.80358737 -21.75958752 63.68770897 -21.7043457 54.93847656 C-21.70865097 53.39928307 -21.70865097 53.39928307 -21.71304321 51.82899475 C-21.71506944 49.67692507 -21.70964148 47.52483636 -21.69702148 45.37280273 C-21.68093095 42.10325496 -21.69692873 38.83494 -21.71606445 35.56542969 C-21.71408209 33.46060929 -21.71023856 31.35578965 -21.7043457 29.25097656 C-21.7104184 28.28715561 -21.71649109 27.32333466 -21.7227478 26.33030701 C-21.64428675 18.65770978 -20.84272098 11.20530815 -15.8059082 5.16113281 C-10.52820068 0.9389668 -6.64559746 0.05006712 0 0 Z " fill="#FDFEFD" transform="translate(321.305908203125,601.8388671875)"/>
<path d="M0 0 C1.78217674 -0.00786278 1.78217674 -0.00786278 3.60035706 -0.0158844 C6.10408754 -0.02228596 8.60784817 -0.02099191 11.11157227 -0.01245117 C14.92584169 -0.00394098 18.73861258 -0.0327323 22.55273438 -0.06445312 C24.99348914 -0.06606541 27.43424653 -0.06548708 29.875 -0.0625 C31.00650986 -0.07373398 32.13801971 -0.08496796 33.30381775 -0.09654236 C40.05409844 -0.03761653 45.74977419 0.67114872 51.50390625 4.43359375 C55.26532253 9.0413287 56.62159772 12.70347512 56.66503906 18.57250977 C56.67464661 19.62112686 56.68425415 20.66974396 56.69415283 21.75013733 C56.69840271 22.88446701 56.70265259 24.01879669 56.70703125 25.1875 C56.71273132 26.35812485 56.7184314 27.52874969 56.7243042 28.73484802 C56.7337595 31.2171844 56.74029028 33.69953336 56.74414062 36.18188477 C56.75380557 39.95677052 56.784808 43.73110238 56.81640625 47.50585938 C56.82294054 49.92056969 56.82818933 52.3352839 56.83203125 54.75 C56.84437805 55.87016006 56.85672485 56.99032013 56.8694458 58.14442444 C56.84795718 65.81077702 56.23494687 73.33703283 51.87890625 79.87109375 C44.75286964 84.55927573 37.08547904 84.88045703 28.78515625 84.83203125 C27.68723755 84.83490143 26.58931885 84.83777161 25.45812988 84.84072876 C23.14867636 84.84276021 20.83920527 84.83729507 18.52978516 84.82470703 C15.01425346 84.80864104 11.49987135 84.82458797 7.984375 84.84375 C5.73046624 84.84176741 3.47655818 84.8379234 1.22265625 84.83203125 C0.18177856 84.83810394 -0.85909912 84.84417664 -1.93151855 84.85043335 C-9.57812252 84.77749092 -16.29654591 83.95238673 -22.43359375 79.12109375 C-28.09797976 71.74022713 -27.65328678 62.13081189 -27.6640625 53.22265625 C-27.6673909 52.25508392 -27.6707193 51.2875116 -27.67414856 50.2906189 C-27.6791919 48.25169345 -27.68155769 46.21275981 -27.68139648 44.17382812 C-27.68358191 41.07538086 -27.70176254 37.97729061 -27.72070312 34.87890625 C-27.72363791 32.88932412 -27.72562214 30.89974032 -27.7265625 28.91015625 C-27.73374802 27.99424713 -27.74093353 27.07833801 -27.74833679 26.13467407 C-27.72305994 18.92402741 -27.27505718 12.25900625 -23.37109375 6.05859375 C-16.51428814 -0.20196789 -8.8265891 -0.02285919 0 0 Z " fill="#FDFEFD" transform="translate(327.49609375,470.56640625)"/>
<path d="M0 0 C0.53367187 0.36351562 1.06734375 0.72703125 1.6171875 1.1015625 C17.73160101 11.97460967 32.44010301 20.23255514 52.50390625 16.5390625 C54.46255493 15.84392622 56.17967095 15.00288399 58 14 C58.85722656 13.58621094 59.71445312 13.17242187 60.59765625 12.74609375 C67.2929571 9.3662101 72.63567774 5.21862462 78 0 C79.61579865 3.99433454 78.28436922 7.26074501 76.9375 11.125 C76.70708008 11.79080078 76.47666016 12.45660156 76.23925781 13.14257812 C72.7316179 22.88863802 68.2601084 30.77386098 59 36 C48.93596728 40.34817824 38.8603713 41.8263154 28.3125 38.4375 C15.00171258 32.94081512 8.24619637 22.3375723 2.15625 9.78515625 C0.75673387 6.4140245 0.16496872 3.62931174 0 0 Z " fill="#6F9F42" transform="translate(571,245)"/>
<path d="M0 0 C0.15899713 9.8578223 -3.88799771 19.57835898 -10.59375 26.7890625 C-20.17627671 35.59378671 -29.35781218 38.47128335 -42.296875 38.3359375 C-52.27960442 37.43033124 -60.45772716 32.45577295 -67 25 C-71.53466695 18.60145991 -75.77679412 10.02687253 -75 2 C-71.95179903 2.63726946 -69.55257367 3.66135232 -66.83984375 5.1796875 C-66.0514209 5.61297363 -65.26299805 6.04625977 -64.45068359 6.49267578 C-63.62133301 6.94884277 -62.79198242 7.40500977 -61.9375 7.875 C-51.78458965 13.32276271 -41.62062627 18.11055787 -29.86328125 15.53125 C-20.02335886 12.56337395 -11.090838 7.38272274 -2.86328125 1.3203125 C-1 0 -1 0 0 0 Z " fill="#6F9F42" transform="translate(402,247)"/>
</svg>
